<svg width="14" height="14" viewBox="0 0 14 14" fill="none" xmlns="http://www.w3.org/2000/svg">
<path d="M12.7747 1.23419C12.6899 1.14921 12.5892 1.08179 12.4783 1.03579C12.3674 0.989792 12.2485 0.966115 12.1285 0.966115C12.0084 0.966115 11.8895 0.989792 11.7786 1.03579C11.6678 1.08179 11.567 1.14921 11.4822 1.23419L6.99972 5.70752L2.51722 1.22502C2.43235 1.14016 2.3316 1.07283 2.22072 1.02691C2.10983 0.980976 1.99099 0.957336 1.87097 0.957336C1.75095 0.957336 1.6321 0.980976 1.52122 1.02691C1.41033 1.07283 1.30958 1.14016 1.22472 1.22502C1.13985 1.30989 1.07253 1.41064 1.0266 1.52152C0.980671 1.63241 0.957031 1.75125 0.957031 1.87127C0.957031 1.99129 0.980671 2.11014 1.0266 2.22102C1.07253 2.3319 1.13985 2.43266 1.22472 2.51752L5.70722 7.00002L1.22472 11.4825C1.13985 11.5674 1.07253 11.6681 1.0266 11.779C0.980671 11.8899 0.957031 12.0088 0.957031 12.1288C0.957031 12.2488 0.980671 12.3676 1.0266 12.4785C1.07253 12.5894 1.13985 12.6902 1.22472 12.775C1.30958 12.8599 1.41033 12.9272 1.52122 12.9731C1.6321 13.0191 1.75095 13.0427 1.87097 13.0427C1.99099 13.0427 2.10983 13.0191 2.22072 12.9731C2.3316 12.9272 2.43235 12.8599 2.51722 12.775L6.99972 8.29252L11.4822 12.775C11.5671 12.8599 11.6678 12.9272 11.7787 12.9731C11.8896 13.0191 12.0084 13.0427 12.1285 13.0427C12.2485 13.0427 12.3673 13.0191 12.4782 12.9731C12.5891 12.9272 12.6899 12.8599 12.7747 12.775C12.8596 12.6902 12.9269 12.5894 12.9728 12.4785C13.0188 12.3676 13.0424 12.2488 13.0424 12.1288C13.0424 12.0088 13.0188 11.8899 12.9728 11.779C12.9269 11.6681 12.8596 11.5674 12.7747 11.4825L8.29222 7.00002L12.7747 2.51752C13.1231 2.16919 13.1231 1.58252 12.7747 1.23419Z" fill="black"/>
</svg>
