<svg width="12" height="12" viewBox="0 0 12 12" fill="none" xmlns="http://www.w3.org/2000/svg">
<path d="M2.75 3.33337H2.16667C1.85725 3.33337 1.5605 3.45629 1.34171 3.67508C1.12292 3.89388 1 4.19062 1 4.50004V9.75004C1 10.0595 1.12292 10.3562 1.34171 10.575C1.5605 10.7938 1.85725 10.9167 2.16667 10.9167H7.41667C7.72609 10.9167 8.02283 10.7938 8.24162 10.575C8.46042 10.3562 8.58333 10.0595 8.58333 9.75004V9.16671" stroke="#4D9FDB" stroke-width="1.16667" stroke-linecap="round" stroke-linejoin="round"/>
<path d="M8.00033 2.16673L9.75033 3.91673M10.5582 3.09131C10.788 2.86157 10.9171 2.54997 10.9171 2.22506C10.9171 1.90016 10.788 1.58856 10.5582 1.35881C10.3285 1.12907 10.0169 1 9.69199 1C9.36709 1 9.05549 1.12907 8.82574 1.35881L3.91699 6.25006V8.00006H5.66699L10.5582 3.09131Z" stroke="#4D9FDB" stroke-width="1.16667" stroke-linecap="round" stroke-linejoin="round"/>
</svg>
