<svg width="14" height="12" viewBox="0 0 14 12" fill="none" xmlns="http://www.w3.org/2000/svg">
<path d="M5 0.5C5 0.367392 5.05268 0.240215 5.14645 0.146447C5.24021 0.0526785 5.36739 0 5.5 0H8.5C8.63261 0 8.75979 0.0526785 8.85355 0.146447C8.94732 0.240215 9 0.367392 9 0.5V2H11.5C11.6326 2 11.7598 2.05268 11.8536 2.14645C11.9473 2.24021 12 2.36739 12 2.5V6.022L13.199 6.542C13.2628 6.5698 13.3201 6.61061 13.3672 6.66183C13.4143 6.71304 13.4502 6.77353 13.4726 6.83942C13.4951 6.90531 13.5035 6.97515 13.4973 7.04447C13.4912 7.11379 13.4706 7.18107 13.437 7.242L12.292 9.303C12.078 8.911 11.786 8.5 11 8.5C10.133 8.5 9.867 9.001 9.643 9.424C9.479 9.733 9.338 10 9 10C8.662 10 8.52 9.733 8.357 9.424C8.133 9 7.867 8.5 7 8.5C6.133 8.5 5.867 9.001 5.643 9.424C5.48 9.733 5.338 10 5 10C4.662 10 4.52 9.733 4.357 9.424C4.133 9 3.867 8.5 3 8.5C2.214 8.5 1.922 8.912 1.708 9.303L0.563 7.243C0.528829 7.18201 0.507827 7.11453 0.501351 7.04492C0.494875 6.97531 0.503068 6.90512 0.525401 6.83887C0.547735 6.77263 0.583712 6.7118 0.631011 6.66032C0.678309 6.60884 0.735878 6.56785 0.8 6.54L2 6.021V2.5C2 2.36739 2.05268 2.24021 2.14645 2.14645C2.24021 2.05268 2.36739 2 2.5 2H5V0.5ZM7.994 4.286L11 5.588V3H3V5.588L6.006 4.286C6.31975 4.15004 6.65806 4.0799 7 4.0799C7.34194 4.0799 7.68025 4.15004 7.994 4.286ZM6 2H8V1H6V2ZM3.053 11.07C3.429 11.52 4.056 11.997 4.991 12H5.008C5.39476 11.9988 5.77596 11.9078 6.12161 11.7343C6.46726 11.5608 6.76794 11.3094 7 11C7.06 11.0793 7.12233 11.1527 7.187 11.22C7.571 11.62 8.159 11.997 8.991 12H8.855H9.008C9.944 11.997 10.571 11.52 10.947 11.07L11.024 10.973C11.062 11.0163 11.1027 11.0597 11.146 11.103C11.609 11.566 12.359 12 13.5 12C13.6326 12 13.7598 11.9473 13.8536 11.8536C13.9473 11.7598 14 11.6326 14 11.5C14 11.3674 13.9473 11.2402 13.8536 11.1464C13.7598 11.0527 13.6326 11 13.5 11C12.641 11 12.141 10.684 11.854 10.396C11.6935 10.2362 11.5646 10.0476 11.474 9.84C11.44 9.74152 11.376 9.6561 11.2912 9.59565C11.2063 9.53519 11.1047 9.5027 11.0005 9.5027C10.8963 9.5027 10.7947 9.53519 10.7098 9.59565C10.625 9.6561 10.561 9.74152 10.527 9.84C10.4425 10.0536 10.3251 10.2527 10.179 10.43C9.93 10.728 9.559 11 8.999 11C8.439 11 8.069 10.728 7.821 10.43C7.67606 10.2541 7.55933 10.0567 7.475 9.845C7.45421 9.78001 7.42026 9.71999 7.37526 9.66869C7.33026 9.6174 7.27518 9.57591 7.21345 9.54683C7.15172 9.51775 7.08466 9.50169 7.01646 9.49965C6.94825 9.49762 6.88035 9.50965 6.817 9.535C6.74832 9.56187 6.68644 9.60359 6.63578 9.65719C6.58513 9.71078 6.54696 9.77492 6.524 9.845C6.43967 10.0567 6.32294 10.2541 6.178 10.43C5.93 10.728 5.56 11 5 11C4.44 11 4.07 10.728 3.822 10.43C3.71531 10.3009 3.62371 10.1599 3.549 10.01C3.53002 9.9734 3.51332 9.93566 3.499 9.897C3.48033 9.84567 3.458 9.79633 3.432 9.749C3.37084 9.6438 3.27343 9.56452 3.158 9.526L3.153 9.524C3.04456 9.48911 2.92746 9.4923 2.82107 9.53303C2.71469 9.57377 2.62541 9.64961 2.568 9.748C2.54505 9.78887 2.525 9.83131 2.508 9.875C2.49253 9.91512 2.4745 9.9542 2.454 9.992C2.36892 10.1392 2.26542 10.275 2.146 10.396C1.86 10.685 1.36 11 0.5 11C0.367392 11 0.240215 11.0527 0.146447 11.1464C0.0526784 11.2402 0 11.3674 0 11.5C0 11.6326 0.0526784 11.7598 0.146447 11.8536C0.240215 11.9473 0.367392 12 0.5 12C1.641 12 2.391 11.566 2.854 11.104C2.89733 11.06 2.938 11.0167 2.976 10.974L3.053 11.07Z" fill="#F3DEAA"/>
</svg>
